<svg width="45" height="45" viewBox="0 0 45 45" fill="none" xmlns="http://www.w3.org/2000/svg">
<path opacity="0.1" fill-rule="evenodd" clip-rule="evenodd" d="M22.4995 44.0749C34.415 44.0749 44.0744 34.4155 44.0744 22.5C44.0744 10.5845 34.415 0.925087 22.4995 0.925087C10.584 0.925087 0.924597 10.5845 0.924597 22.5C0.924597 34.4155 10.584 44.0749 22.4995 44.0749Z" stroke="#61656E" stroke-width="1.84286"/>
<path d="M29.5516 18.5116C29.4514 18.3984 29.29 18.37 29.1576 18.4398C29.0753 18.4831 28.9205 18.54 28.7367 18.5963C28.9685 18.2792 29.155 17.9241 29.2373 17.605C29.2729 17.4674 29.2209 17.3224 29.1075 17.2404C28.9942 17.1591 28.8434 17.1591 28.7301 17.2404C28.5515 17.3685 27.6899 17.7534 27.1451 17.878C25.9139 16.7688 24.481 16.6536 22.9916 17.5481C21.7808 18.2751 21.5173 19.7536 21.5687 20.6548C18.7972 20.3804 17.0746 18.8748 16.1049 17.6287C16.037 17.5413 15.9277 17.4952 15.8249 17.502C15.7169 17.5101 15.6194 17.5718 15.564 17.6673C15.1055 18.4635 14.9784 19.3437 15.1978 20.213C15.3176 20.6873 15.5271 21.1054 15.7702 21.4442C15.6536 21.3852 15.541 21.3114 15.4349 21.2233C15.3374 21.1406 15.201 21.125 15.0858 21.1799C14.9711 21.2362 14.898 21.3554 14.898 21.4862C14.898 22.9789 15.8058 23.975 16.6536 24.4953C16.5166 24.4784 16.3736 24.4472 16.2294 24.4018C16.1055 24.3632 15.9711 24.4018 15.8855 24.5021C15.7999 24.6017 15.7794 24.744 15.8328 24.8653C16.3091 25.9488 17.2116 26.6941 18.3282 26.9645C17.3532 27.5533 16.0482 27.8419 14.8532 27.7003C14.6984 27.678 14.5508 27.7789 14.5021 27.9321C14.4534 28.0852 14.5173 28.2532 14.6536 28.3318C16.4665 29.3787 18.1055 29.7527 19.5219 29.7527C21.5831 29.7527 23.1741 28.9613 24.1424 28.2993C26.7531 26.5173 28.3803 23.3177 28.1537 20.4549C28.572 20.1371 29.1978 19.5503 29.5858 18.9195C29.6662 18.7921 29.6517 18.6241 29.5516 18.5116Z" fill="#61656E"/>
</svg>
