<svg width="100" height="100" viewBox="0 0 93.8567 97.5969" fill="none" xmlns="http://www.w3.org/2000/svg">
<g id="Group">
<path id="Vector" d="M65.4422 21.2494V87.9842C65.4422 92.7652 61.5664 96.6408 56.7855 96.6408H9.60586C4.8248 96.6408 0.949219 92.765 0.949219 87.9842V21.2494C0.949219 16.4684 4.825 12.5928 9.60586 12.5928H56.7855C61.5664 12.5926 65.4422 16.4684 65.4422 21.2494Z" fill="white"/>
<g id="Group_2">
<path id="Vector_2" d="M44.634 0.958496H21.7807C18.8125 0.958496 16.4062 3.36475 16.4062 6.33291V12.5933H50.0084V6.33291C50.0084 3.36475 47.6023 0.958496 44.634 0.958496Z" fill="#DBEAF6"/>
<path id="Vector_3" d="M57.3156 70.2752V79.3055C57.3156 80.4197 56.4123 81.3229 55.2982 81.3229H11.1072C9.99297 81.3229 9.08984 80.4195 9.08984 79.3055V70.2752C9.08984 69.1609 9.99316 68.2578 11.1072 68.2578H55.298C56.4123 68.2578 57.3156 69.1611 57.3156 70.2752Z" fill="#DBEAF6"/>
<path id="Vector_4" d="M57.3156 50.1009V59.1312C57.3156 60.2454 56.4123 61.1485 55.2982 61.1485H11.1072C9.99297 61.1485 9.08984 60.2452 9.08984 59.1312V50.1009C9.08984 48.9866 9.99316 48.0835 11.1072 48.0835H55.298C56.4123 48.0835 57.3156 48.9866 57.3156 50.1009Z" fill="#DBEAF6"/>
<path id="Vector_5" d="M57.3156 29.927V38.9573C57.3156 40.0716 56.4123 40.9747 55.2982 40.9747H11.1072C9.99297 40.9747 9.08984 40.0714 9.08984 38.9573V29.927C9.08984 28.8128 9.99316 27.9097 11.1072 27.9097H55.298C56.4123 27.9097 57.3156 28.813 57.3156 29.927Z" fill="#DBEAF6"/>
<path id="Vector_6" d="M84.0067 96.641H54.9395C47.7442 96.641 43.5461 88.5214 47.7057 82.6505L62.2393 62.1376C65.7725 57.1507 73.1735 57.1507 76.7067 62.1376L91.2403 82.6505C95.4 88.5214 91.2018 96.641 84.0067 96.641Z" fill="#DBEAF6"/>
</g>
<path id="Vector_7" d="M67.1155 82.0756L64.2282 90.7312C64.031 91.3228 64.74 91.797 65.2112 91.3888L75.1691 82.7668C75.8525 82.175 75.6321 81.0644 74.7745 80.7783L71.6751 79.7443L75.386 72.8291C75.865 71.9367 75.4245 70.8279 74.4638 70.5074L68.8396 68.6312C67.9839 68.3459 67.0589 68.808 66.7734 69.6638L63.3983 79.7814C63.2114 80.3416 63.5202 80.9461 64.0835 81.123L67.1155 82.0756Z" fill="white"/>
<path id="Vector_8" d="M11.1109 62.1054H55.3018C56.9416 62.1054 58.276 60.771 58.276 59.1312V50.1007C58.276 48.4608 56.9416 47.1265 55.3018 47.1265H11.1109C9.47109 47.1265 8.13672 48.4608 8.13672 50.1007V59.1312C8.13672 60.771 9.47109 62.1054 11.1109 62.1054ZM10.0504 50.1007C10.0504 49.5157 10.526 49.0401 11.1109 49.0401H55.3018C55.8867 49.0401 56.3623 49.5157 56.3623 50.1007V59.1312C56.3623 59.7161 55.8867 60.1917 55.3018 60.1917H11.1109C10.526 60.1917 10.0504 59.7161 10.0504 59.1312V50.1007Z" fill="#5487AE"/>
<path id="Vector_9" d="M11.1109 41.9311H55.3018C56.9416 41.9311 58.276 40.5967 58.276 38.9568V29.9264C58.276 28.2865 56.9416 26.9521 55.3018 26.9521H11.1109C9.47109 26.9521 8.13672 28.2865 8.13672 29.9264V38.9568C8.13672 40.5967 9.47109 41.9311 11.1109 41.9311ZM10.0504 29.9264C10.0504 29.3414 10.526 28.8658 11.1109 28.8658H55.3018C55.8867 28.8658 56.3623 29.3414 56.3623 29.9264V38.9568C56.3623 39.5418 55.8867 40.0174 55.3018 40.0174H11.1109C10.526 40.0174 10.0504 39.5418 10.0504 38.9568V29.9264Z" fill="#5487AE"/>
<path id="Vector_10" d="M77.4887 61.5832C75.6227 58.9496 72.7012 57.4391 69.4738 57.4396C68.407 57.4396 67.3795 57.6195 66.4066 57.9355V21.2482C66.4066 15.9475 62.0943 11.6346 56.7936 11.6346H50.9615V6.33105C50.9615 2.84004 48.1215 0 44.6301 0H21.7768C18.2857 0 15.4457 2.84004 15.4457 6.33105V11.6348H9.61367C4.31289 11.6348 0 15.9475 0 21.2484V87.9832C0 93.284 4.3127 97.5969 9.61367 97.5969H84.0076C87.7518 97.5969 91.0133 95.6113 92.7326 92.2857C94.452 88.9602 94.1865 85.1512 92.0221 82.0965L77.4887 61.5832ZM17.3594 6.33105C17.3594 3.89512 19.3408 1.91367 21.7768 1.91367H44.6299C47.0658 1.91367 49.0477 3.89512 49.0477 6.33105V11.6348H17.3594V6.33105ZM9.61367 95.6828C5.36777 95.6828 1.91367 92.2287 1.91367 87.9828V21.2482C1.91367 17.0023 5.36777 13.5482 9.61367 13.5482H56.7936C61.0391 13.5482 64.493 17.0023 64.493 21.2482V58.8C63.3219 59.4916 62.2838 60.4203 61.46 61.5832L57.0143 67.8578C56.5297 67.5102 55.9404 67.3002 55.299 67.3002H11.1082C9.46836 67.3002 8.13398 68.6346 8.13398 70.2744V79.3045C8.13398 80.9443 9.46836 82.2787 11.1082 82.2787H46.8143C44.7639 85.3023 44.5297 89.0246 46.2156 92.2857C46.9326 93.6723 47.9291 94.809 49.1055 95.6828H9.61367ZM48.1525 80.3652H11.1082C10.5232 80.3652 10.0477 79.8896 10.0477 79.3047V70.2746C10.0477 69.6897 10.5232 69.2141 11.1082 69.2141H55.299C55.5283 69.2141 55.7293 69.3025 55.9029 69.4266L48.1525 80.3652ZM91.0328 91.4066C89.6484 94.0842 87.0219 95.683 84.0074 95.683H54.9406C51.9262 95.683 49.3 94.0842 47.9158 91.4066C46.5314 88.7291 46.7449 85.6619 48.4877 83.2025L63.0215 62.6897C64.5236 60.5695 66.8754 59.3533 69.474 59.3533C72.0727 59.3529 74.425 60.5689 75.9275 62.6897L90.4607 83.2025C92.2031 85.6619 92.4172 88.7291 91.0328 91.4066Z" fill="#5487AE"/>
<path id="Vector_11" d="M74.7635 69.5997L69.1392 67.724C67.7824 67.2712 66.3137 68.0066 65.8623 69.3615L62.4873 79.4786C62.3154 79.9948 62.3564 80.5462 62.6041 81.0312C62.8518 81.5157 63.274 81.8726 63.7935 82.0361L65.8965 82.6966L63.317 90.4282C63.0908 91.1075 63.3385 91.8312 63.9332 92.2298C64.525 92.6265 65.2906 92.5825 65.8348 92.112L75.7918 83.4904C76.3762 82.9843 76.6352 82.2298 76.4852 81.472C76.3348 80.7138 75.8072 80.1152 75.0742 79.8704L73.0521 79.1958L76.2264 73.2816C76.9848 71.8667 76.2883 70.1089 74.7635 69.5997ZM74.5398 72.3773L70.8289 79.2923C70.6957 79.5409 70.6789 79.8357 70.7832 80.0978C70.8873 80.3599 71.1017 80.5632 71.3695 80.6523L74.4689 81.6863C74.5643 81.7181 74.5975 81.7896 74.6082 81.8443C74.6189 81.8989 74.6156 81.9779 74.5394 82.0437L65.5289 89.846L68.0201 82.3786C68.1014 82.1353 68.0812 81.8695 67.9644 81.6409C67.8477 81.412 67.6439 81.2402 67.3992 81.163L64.3676 80.2105C64.318 80.1136 64.2535 79.9874 64.3031 80.0843L67.6781 69.9671C67.7959 69.614 68.1771 69.4195 68.534 69.5396L74.1582 71.4154C74.5525 71.5468 74.7398 72.0036 74.5398 72.3773Z" fill="#5487AE"/>
</g>
</svg>
