<svg width="100" height="100" viewBox="0 0 100 100" fill="none" xmlns="http://www.w3.org/2000/svg">
  <svg x="3.14" y="3.29" width="93.75" height="93.41999999999999" viewBox="0 0 93.7544 93.416" overflow="visible"><g id="Group">
<path id="Vector" d="M0.230942 80.9111V15.3783C0.230942 6.88516 7.245 0 15.8973 0V74.0959L10.2184 73.932C4.53211 73.7678 -0.131167 78.3188 0.00281693 83.9014C0.12977 89.192 4.53543 93.416 9.92664 93.416H93.7544V9.32012H17.3216" fill="white"/>
</g></svg>
  <svg x="3.37" y="3.29" width="16.11999999999999" height="79.31" viewBox="0 0 16.1238 79.3008" overflow="visible"><g id="Group">
<path id="Vector" d="M16.1238 1.8166L15.2352 73.7047C6.05508 73.1383 0 79.3008 0 79.3008V15.3719C0 6.88515 7.01211 0 15.6648 0V2.54902L16.1238 1.8166Z" fill="#DBEAF6"/>
</g></svg>
  <svg x="10.98" y="14.3" width="9.079999999999998" height="63.14" viewBox="0 0 9.075 63.1398" overflow="visible"><g id="Group">
<path id="Vector" d="M9.075 63.1398V0L8.05488 4.27344V63.0832L2.37598 62.9191C1.55762 62.8955 0.764258 62.9789 0 63.1398H9.075Z" fill="#5487AE"/>
</g></svg>
  <svg x="1.64" y="1.83" width="96.72" height="96.34" viewBox="0 0 96.7169 96.3455" overflow="visible"><path id="Vector" d="M11.4245 96.3455H95.2521C96.0613 96.3455 96.7169 95.6898 96.7169 94.8807V10.785C96.7169 9.97578 96.0613 9.32012 95.2521 9.32012H18.8601V1.46484C18.8601 0.655664 18.2044 0 17.3952 0C7.94915 0 0.263997 7.55586 0.263997 16.8432C-0.0457689 100.542 -0.0231126 82.966 0.0360671 85.4012C0.183919 91.5383 5.18626 96.3455 11.4245 96.3455ZM3.19388 16.843C3.19388 9.65566 8.78548 3.72402 15.9304 3.00312V74.0527L11.7589 73.932C8.66654 73.8498 5.52435 75.0047 3.19407 77.3869L3.19388 16.843ZM11.674 76.8609L17.3529 77.025C18.182 77.0506 18.8603 76.3809 18.8603 75.5605V12.2498H41.6255V30.0576H35.2575C34.4484 30.0576 33.7927 30.7133 33.7927 31.5225C33.7927 32.3316 34.4484 32.9873 35.2575 32.9873H51.28C52.0892 32.9873 52.7449 32.3316 52.7449 31.5225C52.7449 30.7133 52.0892 30.0576 51.28 30.0576H44.5554V12.2498H93.7872V75.1393C93.1777 74.8223 93.6404 75.0346 82.1189 74.9693V69.4445C82.1189 68.6353 81.4632 67.9797 80.654 67.9797C79.8449 67.9797 79.1892 68.6353 79.1892 69.4445V83.075C79.1892 83.8842 79.8449 84.5398 80.654 84.5398C81.4632 84.5398 82.1189 83.8842 82.1189 83.075V77.8992C93.607 77.8342 93.1745 78.0478 93.7872 77.7293V93.4158H47.582V53.958H67.7956V58.0852C67.7956 58.8943 68.4513 59.55 69.2605 59.55C70.0697 59.55 70.7253 58.8943 70.7253 58.0852V45.5027C70.7253 44.6936 70.0697 44.0379 69.2605 44.0379C68.4513 44.0379 67.7956 44.6936 67.7956 45.5027V51.0281H46.1169C45.3077 51.0281 44.6521 51.6838 44.6521 52.493V93.4156H11.4245C6.86712 93.4156 3.07239 89.7887 2.96497 85.3305C2.84896 80.5135 6.91693 76.7033 11.674 76.8609Z" fill="#5487AE"/></svg>
</svg>